<?xml version="1.0" encoding="UTF-8" standalone="no"?><svg xmlns="http://www.w3.org/2000/svg" xmlns:xlink="http://www.w3.org/1999/xlink" contentScriptType="application/ecmascript" contentStyleType="text/css" height="354px" preserveAspectRatio="none" style="width:259px;height:354px;background:#FFFFFF;" version="1.1" viewBox="0 0 259 354" width="259px" zoomAndPan="magnify"><defs><filter height="300%" id="fjbf9fmxk1r7g" width="300%" x="-1" y="-1"><feGaussianBlur result="blurOut" stdDeviation="2.0"/><feColorMatrix in="blurOut" result="blurOut2" type="matrix" values="0 0 0 0 0 0 0 0 0 0 0 0 0 0 0 0 0 0 .4 0"/><feOffset dx="4.0" dy="4.0" in="blurOut2" result="blurOut3"/><feBlend in="SourceGraphic" in2="blurOut3" mode="normal"/></filter></defs><g><!--MD5=[22af4938a607d33570c0ec86a2053e7d]
cluster psr.container--><polygon fill="#FFFFFF" filter="url(#fjbf9fmxk1r7g)" points="16,6,115,6,122,28.4883,242,28.4883,242,347,16,347,16,6" style="stroke:#000000;stroke-width:1.5;"/><line style="stroke:#000000;stroke-width:1.5;" x1="16" x2="122" y1="28.4883" y2="28.4883"/><text fill="#000000" font-family="sans-serif" font-size="14" font-weight="bold" lengthAdjust="spacing" textLength="93" x="20" y="21.5352">psr.container</text><!--MD5=[b26de0906acd337b5e6e20e46d639b25]
class ContainerInterface--><rect codeLine="11" fill="#EBEBEB" filter="url(#fjbf9fmxk1r7g)" height="73.9102" id="ContainerInterface" style="stroke:#333333;stroke-width:1.5;" width="142" x="58" y="41"/><ellipse cx="75.25" cy="57" fill="#B4A7E5" rx="11" ry="11" style="stroke:#333333;stroke-width:1.0;"/><path d="M71.1777,52.7651 L71.1777,50.6069 L78.5571,50.6069 L78.5571,52.7651 L76.0918,52.7651 L76.0918,60.8418 L78.5571,60.8418 L78.5571,63 L71.1777,63 L71.1777,60.8418 L73.6431,60.8418 L73.6431,52.7651 Z " fill="#000000"/><text fill="#000000" font-family="sans-serif" font-size="12" font-style="italic" lengthAdjust="spacing" textLength="105" x="89.75" y="61.5352">ContainerInterface</text><line style="stroke:#333333;stroke-width:1.5;" x1="59" x2="199" y1="73" y2="73"/><line style="stroke:#333333;stroke-width:1.5;" x1="59" x2="199" y1="81" y2="81"/><ellipse cx="69" cy="92" fill="#84BE84" rx="3" ry="3" style="stroke:#038048;stroke-width:1.0;"/><text fill="#000000" font-family="sans-serif" font-size="11" lengthAdjust="spacing" textLength="116" x="78" y="95.6348">get(id_: str) -&gt; object</text><ellipse cx="69" cy="104.9551" fill="#84BE84" rx="3" ry="3" style="stroke:#038048;stroke-width:1.0;"/><text fill="#000000" font-family="sans-serif" font-size="11" lengthAdjust="spacing" textLength="109" x="78" y="108.5898">has(id_: str) -&gt; bool</text><!--MD5=[7aeb0247c8d181692feba5117e01a793]
class ContainerExceptionInterface--><rect codeLine="15" fill="#EBEBEB" filter="url(#fjbf9fmxk1r7g)" height="48" id="ContainerExceptionInterface" style="stroke:#333333;stroke-width:1.5;" width="193" x="32.5" y="175"/><ellipse cx="47.5" cy="191" fill="#B4A7E5" rx="11" ry="11" style="stroke:#333333;stroke-width:1.0;"/><path d="M43.4277,186.7651 L43.4277,184.6069 L50.8071,184.6069 L50.8071,186.7651 L48.3418,186.7651 L48.3418,194.8418 L50.8071,194.8418 L50.8071,197 L43.4277,197 L43.4277,194.8418 L45.8931,194.8418 L45.8931,186.7651 Z " fill="#000000"/><text fill="#000000" font-family="sans-serif" font-size="12" font-style="italic" lengthAdjust="spacing" textLength="161" x="61.5" y="195.5352">ContainerExceptionInterface</text><line style="stroke:#333333;stroke-width:1.5;" x1="33.5" x2="224.5" y1="207" y2="207"/><line style="stroke:#333333;stroke-width:1.5;" x1="33.5" x2="224.5" y1="215" y2="215"/><!--MD5=[0a4ba63c39cb892d7f95943b102f81d2]
class NotFoundExceptionInterface--><rect codeLine="16" fill="#EBEBEB" filter="url(#fjbf9fmxk1r7g)" height="48" id="NotFoundExceptionInterface" style="stroke:#333333;stroke-width:1.5;" width="193" x="32.5" y="283"/><ellipse cx="47.5" cy="299" fill="#B4A7E5" rx="11" ry="11" style="stroke:#333333;stroke-width:1.0;"/><path d="M43.4277,294.7651 L43.4277,292.6069 L50.8071,292.6069 L50.8071,294.7651 L48.3418,294.7651 L48.3418,302.8418 L50.8071,302.8418 L50.8071,305 L43.4277,305 L43.4277,302.8418 L45.8931,302.8418 L45.8931,294.7651 Z " fill="#000000"/><text fill="#000000" font-family="sans-serif" font-size="12" font-style="italic" lengthAdjust="spacing" textLength="161" x="61.5" y="303.5352">NotFoundExceptionInterface</text><line style="stroke:#333333;stroke-width:1.5;" x1="33.5" x2="224.5" y1="315" y2="315"/><line style="stroke:#333333;stroke-width:1.5;" x1="33.5" x2="224.5" y1="323" y2="323"/><!--MD5=[dbbcca7a4e5f7d91639647915ced0415]
reverse link ContainerExceptionInterface to NotFoundExceptionInterface--><path d="M129,243.24 C129,243.24 129,282.84 129,282.84 " fill="none" id="ContainerExceptionInterface-backto-NotFoundExceptionInterface" style="stroke:#333333;stroke-width:1.0;"/><polygon fill="none" points="122,243.24,129,223.24,136,243.24,122,243.24" style="stroke:#333333;stroke-width:1.0;"/><!--MD5=[0d482d5963ba5a7131177ca894c720b0]
link ContainerInterface to ContainerExceptionInterface--><path codeLine="18" d="M129,115.29 C129,134.73 129,157.95 129,174.99 " fill="none" id="ContainerInterface-ContainerExceptionInterface" style="stroke:#333333;stroke-width:1.0;"/><polygon fill="#000000" points="82,141.7953,84.9389,132.7502,79.0611,132.7502,82,141.7953" style="stroke:#000000;stroke-width:1.0;"/><text fill="#000000" font-family="sans-serif" font-size="13" lengthAdjust="spacing" textLength="37" x="91" y="141.7084">raises</text><!--MD5=[72157bde29576fc3d12be92549dd103d]
@startuml

skinparam class {
  BackgroundColor #ebebeb
  ArrowColor      #333
  BorderColor     #333
}

skinparam lineType ortho

package psr.container {
  interface ContainerInterface {
    + get(id_: str) -> object
    + has(id_: str) -> bool
  }
  interface ContainerExceptionInterface {}
  interface NotFoundExceptionInterface extends ContainerExceptionInterface {}

  ContainerInterface - - ContainerExceptionInterface : "raises >"
}

@enduml

PlantUML version 1.2022.0(Tue Jan 11 19:16:42 MSK 2022)
(GPL source distribution)
Java Runtime: OpenJDK Runtime Environment
JVM: OpenJDK 64-Bit Server VM
Default Encoding: UTF-8
Language: ru
Country: RU
--></g></svg>